/* XPM */
static char *tilebottom_scaled[] = {
/* columns rows colors chars-per-pixel */
"12 12 2 1 ",
"# c #000000",
"  c None",
/* pixels */
"############",
"############",
"##        ##",
"##        ##",
"##        ##",
"############",
"############",
"## ##  ## ##",
"## ##  ## ##",
"## ##  ## ##",
"############",
"############"
};
