/* XPM */
static char *mirror_tall[] = {
/* columns rows colors chars-per-pixel */
"22 14 2 1",
"# c #000000",
"  c None",
/* pixels */
"######################",
"#                    #",
"#                    #",
"#                    #",
"#                    #",
"#                    #",
"######################",
"######################",
"#     ##      ##     #",
"#     ##      ##     #",
"#     ###    ###     #",
"#     ##      ##     #",
"#     ##      ##     #",
"######################"
};
